<svg width="90" height="40" viewBox="0 0 90 40" fill="none" xmlns="http://www.w3.org/2000/svg">
<path d="M49.2333 18.6559H51.2991V17.4494H51.3926C51.6828 18.0772 52.3173 18.7785 53.5371 18.7785C55.2586 18.7785 56.6013 17.4199 56.6013 14.8989C56.6013 12.3093 55.1995 11.0242 53.542 11.0242C52.2779 11.0242 51.6729 11.7747 51.3926 12.3877H51.3286V8.61115H49.2333V18.6559ZM51.2844 14.8891C51.2844 13.5452 51.8549 12.6869 52.8731 12.6869C53.9109 12.6869 54.4618 13.5845 54.4618 14.8891C54.4618 16.2036 53.901 17.1159 52.8731 17.1159C51.8648 17.1159 51.2844 16.233 51.2844 14.8891Z" fill="#005AEE"/>
<path d="M61.4424 18.8031C63.3114 18.8031 64.5706 17.8957 64.8657 16.4979L62.9278 16.3703C62.7163 16.9442 62.1753 17.2434 61.4768 17.2434C60.4292 17.2434 59.7652 16.5518 59.7652 15.4286V15.4237H64.91V14.8499C64.91 12.2897 63.3557 11.0242 61.3588 11.0242C59.1356 11.0242 57.6945 12.5986 57.6945 14.9235C57.6945 17.312 59.1159 18.8031 61.4424 18.8031ZM59.7652 14.1289C59.8094 13.2706 60.4636 12.5839 61.3932 12.5839C62.3031 12.5839 62.9327 13.2313 62.9376 14.1289H59.7652Z" fill="#005AEE"/>
<path d="M69.483 18.6559H71.5783V14.1338C71.5783 13.3 72.1095 12.7458 72.8079 12.7458C73.4965 12.7458 73.9589 13.2166 73.9589 13.9572V18.6559H75.9902V14.0553C75.9902 13.2755 76.4378 12.7458 77.2002 12.7458C77.8691 12.7458 78.3708 13.1627 78.3708 14.0014V18.6559H80.4612V13.5894C80.4612 11.9561 79.4873 11.0242 78.0806 11.0242C76.9739 11.0242 76.1132 11.5883 75.8033 12.4515H75.7246C75.4836 11.5785 74.7114 11.0242 73.6736 11.0242C72.6555 11.0242 71.8832 11.5638 71.5685 12.4515H71.4799V11.1223H69.483V18.6559Z" fill="#005AEE"/>
<path d="M83.1393 21.4663C84.6985 21.4663 85.5298 20.6766 85.9528 19.4701L88.8891 11.1321L86.6709 11.1223L85.092 16.6548H85.0133L83.4492 11.1223H81.2457L83.9558 18.8717L83.8329 19.1905C83.5377 19.8723 83.0311 19.9213 82.2934 19.6908L81.8212 21.2554C82.1212 21.378 82.6081 21.4663 83.1393 21.4663Z" fill="#005AEE"/>
<path d="M52.637 31.5035C54.506 31.5035 55.7652 30.5961 56.0603 29.1983L54.1224 29.0708C53.9109 29.6446 53.3698 29.9438 52.6714 29.9438C51.6238 29.9438 50.9597 29.2523 50.9597 28.1291V28.1242H56.1045V27.5503C56.1045 24.9901 54.5503 23.7247 52.5534 23.7247C50.3302 23.7247 48.889 25.2991 48.889 27.6239C48.889 30.0125 50.3105 31.5035 52.637 31.5035ZM50.9597 26.8294C51.004 25.971 51.6582 25.2844 52.5878 25.2844C53.4977 25.2844 54.1273 25.9318 54.1322 26.8294H50.9597Z" fill="#005AEE"/>
<path d="M58.6437 34.1668C60.2029 34.1668 61.0342 33.3771 61.4572 32.1706L64.3935 23.8326L62.1753 23.8228L60.5964 29.3553H60.5177L58.9536 23.8228H56.7501L59.4602 31.5722L59.3373 31.891C59.0421 32.5727 58.5355 32.6218 57.7978 32.3913L57.3256 33.9559C57.6256 34.0785 58.1125 34.1668 58.6437 34.1668Z" fill="#005AEE"/>
<path d="M68.6518 31.5035C70.5208 31.5035 71.78 30.5961 72.0751 29.1983L70.1372 29.0708C69.9257 29.6446 69.3846 29.9438 68.6862 29.9438C67.6385 29.9438 66.9745 29.2523 66.9745 28.1291V28.1242H72.1193V27.5503C72.1193 24.9901 70.5651 23.7247 68.5681 23.7247C66.345 23.7247 64.9038 25.2991 64.9038 27.6239C64.9038 30.0125 66.3253 31.5035 68.6518 31.5035ZM66.9745 26.8294C67.0188 25.971 67.673 25.2844 68.6026 25.2844C69.5125 25.2844 70.1421 25.9318 70.147 26.8294H66.9745Z" fill="#005AEE"/>
<path d="M79.7726 25.971C79.5857 24.583 78.4643 23.7247 76.5559 23.7247C74.6229 23.7247 73.349 24.6173 73.3539 26.0691C73.349 27.1972 74.0622 27.928 75.5377 28.2223L76.8461 28.4822C77.5051 28.6147 77.8052 28.855 77.815 29.2326C77.8052 29.679 77.3182 29.9978 76.5854 29.9978C75.8378 29.9978 75.341 29.679 75.2131 29.0659L73.1522 29.1738C73.349 30.6158 74.5786 31.5035 76.5805 31.5035C78.538 31.5035 79.9398 30.5079 79.9447 29.0217C79.9398 27.9329 79.2266 27.2806 77.7609 26.9814L76.3936 26.7067C75.6902 26.5547 75.4295 26.3144 75.4344 25.9514C75.4295 25.5002 75.941 25.2059 76.5903 25.2059C77.3182 25.2059 77.7511 25.6032 77.8544 26.0888L79.7726 25.971Z" fill="#005AEE"/>
<path fill-rule="evenodd" clip-rule="evenodd" d="M22.4125 0L22.5886 0.0245856C23.002 0.0822994 23.4152 0.154432 23.8284 0.240973L24.005 0.277955L23.8743 1.01525L23.7334 1.77117L23.5218 2.985L22.109 10.8636L24.9629 3.19056L25.1317 3.24548C25.5305 3.37524 25.9301 3.51966 26.3161 3.67885L26.4826 3.74752L23.6583 11.3408L27.6807 4.54174L28.3163 3.46939L28.7108 2.8134L28.7114 2.81239L29.0983 2.15959L29.2578 2.24656C29.6227 2.44546 29.9947 2.64823 30.3534 2.88058L30.5042 2.97827L30.1169 3.6316L30.116 3.63314L29.7351 4.29015L29.1003 5.36108L25.0577 12.2073L30.2535 6.19992L31.0718 5.2573L31.5654 4.68632L31.5657 4.686L32.0599 4.11152L32.1985 4.21671C32.5436 4.47876 32.8588 4.75446 33.1714 5.04209L33.3047 5.16474L32.8052 5.74521L32.3111 6.31682L31.493 7.25924L26.2373 13.334L32.5068 8.29066L33.6204 7.39211L33.7373 7.52916C34.0071 7.84545 34.2771 8.17628 34.5331 8.50736L34.6454 8.6526L33.5292 9.55326L27.2743 14.5875L34.3548 10.7431L35.4547 10.1436L35.4553 10.1432L36.1059 9.78533L36.798 9.41662L36.8883 9.56908C37.1021 9.92976 37.3013 10.3042 37.4981 10.6741L37.4982 10.6743L37.5855 10.8384L36.8897 11.2277L36.8885 11.2283L36.2395 11.5854L36.2388 11.5857L28.0802 16.0166L35.8787 13.4603L35.9424 13.6245C36.0997 14.0297 36.2281 14.434 36.3544 14.832L36.3546 14.8326L36.3546 14.8326L36.3546 14.8327L36.3547 14.8327L36.4117 15.0124L28.5124 17.5932L38.5659 16.2212L38.5666 16.2211L39.3789 16.1115L39.4092 16.289C39.4797 16.703 39.5513 17.1371 39.5943 17.5583L39.6128 17.7389L38.786 17.8481L38.7848 17.8483L36.8246 18.1195L28.7903 19.2126L38.1612 19.6474L38.1623 19.6474L38.8814 19.676L39.7222 19.7122V19.9338C39.7222 20.338 39.708 20.7568 39.6794 21.1612L39.6667 21.3423L38.8238 21.306L38.8232 21.306L38.1043 21.2775L38.1032 21.2774L28.7351 20.8434L36.7001 22.68L38.1029 23.0064L38.0678 23.184C37.9828 23.614 37.8977 24.0165 37.7982 24.4337L37.7552 24.6138L28.3439 22.4308L35.913 25.7183L37.0711 26.2187L37.7184 26.5035L37.7202 26.5043L38.5192 26.8458L38.4536 27.0147C38.2979 27.416 38.1416 27.8044 37.9708 28.1934L37.8968 28.3618L37.0917 28.0177L36.4438 27.7325L36.4426 27.732L35.2864 27.2325L27.8206 23.9825L34.7752 28.645L34.6888 28.7965C34.4744 29.1727 34.2456 29.5347 34.0023 29.8823L33.8981 30.0312L26.8962 25.3325L32.8362 31.1111L32.8367 31.1116L33.7379 31.9811L34.2465 32.453L34.8811 33.0776L34.767 33.2105C34.4813 33.5431 34.196 33.8463 33.8976 34.1484L33.7677 34.2798L33.1291 33.6513L32.6205 33.165L31.7323 32.2944L31.7316 32.2937L25.7307 26.4684L30.6294 33.3083L31.3503 34.3242L31.7443 34.8939L32.2687 35.6195L32.1349 35.7314C31.8051 36.0072 31.4618 36.2533 31.1249 36.4949L30.9725 36.6042L30.4411 35.869L30.4407 35.8683L30.0315 35.297L30.031 35.2964L29.3118 34.2828L29.3114 34.2823L24.4976 27.548L28.6619 36.3387L28.5067 36.4233C28.135 36.6259 27.7497 36.8136 27.3653 36.9866L27.1992 37.0613L26.5999 35.7824L26.5996 35.7817L23.0203 28.2234L25.2112 36.338L25.2114 36.3386L25.5367 37.5271L25.7055 38.1967L25.706 38.1984L25.9338 39.0675L25.7666 39.1219C25.3677 39.2517 24.9681 39.3673 24.554 39.4685L24.3771 39.5117L24.1478 38.6366L24.1473 38.6347L23.6399 36.78L23.6397 36.7793L21.447 28.6451L22.1847 37.2195L22.0101 37.2438C21.5935 37.302 21.178 37.3309 20.7554 37.3595L20.5737 37.3717L19.8374 28.8132L18.9523 38.406L18.8818 39.1055L18.7934 40L18.5719 39.9845H18.5718C18.1767 39.957 17.7618 39.9281 17.3594 39.8719L17.1825 39.8472L17.2708 38.9539L17.3412 38.2553L17.3413 38.2541L17.4541 37.0556L18.2226 28.7052L15.9835 36.7947L15.9833 36.7953L15.6591 37.951L15.6588 37.9522L15.476 38.6214L15.4757 38.6223L15.2451 39.4843L15.068 39.4395C14.6701 39.3388 14.2568 39.2234 13.8569 39.0933L13.6889 39.0386L13.9184 38.1805L14.1019 37.5092L14.1022 37.508L14.4265 36.3518L14.4267 36.3511L16.6321 28.3705L13.0511 35.8262L13.0507 35.8271L12.4498 37.0602L12.2862 36.9866C11.9018 36.8137 11.5166 36.6259 11.1448 36.4233L10.9898 36.3388L11.5736 35.1075L11.574 35.1066L15.1859 27.5867L10.3111 34.3264L9.62021 35.2827L9.61976 35.2833L9.20973 35.8558L8.69212 36.5605L8.54355 36.4539C8.20219 36.2092 7.86119 35.9503 7.53468 35.6916L7.39558 35.5814L7.89348 34.8794L7.89398 34.8787L8.30315 34.3074L8.3036 34.3067L8.99496 33.3498L13.8337 26.66L7.7761 32.4755L7.64795 32.3519C7.34739 32.0621 7.04694 31.7435 6.77486 31.4246L6.66016 31.2902L12.7827 25.4123L4.887 30.6307L4.88598 30.6314L4.29338 31.017L3.59313 31.4714L3.49053 31.3248C3.24738 30.9773 3.01908 30.6161 2.80564 30.256L2.71385 30.1011L3.41452 29.6465L4.00609 29.2615L4.00711 29.2608L11.8104 24.095L3.22206 27.761L2.57404 28.0463L2.57315 28.0466L1.81161 28.377L1.73592 28.2046C1.5675 27.821 1.39584 27.43 1.25241 27.0235L1.19429 26.8588L1.94688 26.5323L3.66805 25.7897L3.66866 25.7894L11.2221 22.559L3.23189 24.3723L1.92441 24.6701L1.88094 24.4878C1.78266 24.0757 1.68271 23.6565 1.61113 23.2362L1.58103 23.0595L2.88301 22.7795L10.9488 20.9489L2.70629 21.2916L1.56154 21.3489L0.842651 21.3774L0.0547707 21.4145L0.0427342 21.2317C0.0142547 20.7993 0 20.381 0 19.9482V19.77L0.785002 19.733L1.50458 19.7045L1.50499 19.7045L2.64784 19.6616L10.6965 19.3136L2.54539 18.165L2.56959 17.9812C2.62606 17.5525 2.68288 17.1353 2.75407 16.7173L2.78449 16.5388L10.8529 17.6775L3.30153 15.1551L3.30099 15.1549L2.1994 14.7832L1.49447 14.5406L0.776811 14.2984L0.825193 14.127C0.939703 13.7213 1.08246 13.3166 1.22286 12.9187L1.2849 12.7428L2.00704 12.9865L2.71357 13.2154L11.5138 16.1716L2.0823 10.9838L2.16531 10.8217C2.36357 10.4346 2.5631 10.0594 2.77758 9.69754L2.86913 9.5431L5.18494 10.8149L12.2231 14.6951L5.97994 9.62365L4.93952 8.76793L5.0456 8.62475C5.30292 8.27744 5.5739 7.94545 5.8437 7.62922L5.96173 7.49088L7.00502 8.34897L13.1727 13.3591L8.00216 7.3149L7.23799 6.41242L6.77482 5.84405L6.28862 5.29509L6.42382 5.17067C6.73655 4.88288 7.04918 4.60957 7.37578 4.33646L7.5164 4.21886L7.98766 4.77224L8.48229 5.34447L9.24372 6.24374L9.24419 6.24429L14.4481 12.3425L10.3075 5.23702L10.4526 5.1391C10.7978 4.90615 11.1701 4.68882 11.5399 4.48727L11.6975 4.40139L15.8038 11.4259L12.6678 2.81688L12.399 2.10084L12.1557 1.41852L12.3199 1.35077C12.7018 1.19328 13.1022 1.03394 13.5043 0.903112L13.6754 0.847446L13.919 1.53044L14.1873 2.2451L14.5964 3.37315L17.356 10.9445L15.9747 2.99921L15.9746 2.99837L15.7627 1.81181L15.636 1.05611L15.5048 0.335325L15.6853 0.29753C16.0924 0.212266 16.5067 0.1255 16.922 0.0675045L17.0981 0.0429188L17.2294 0.764144L17.3562 1.52016L17.5678 2.70555L18.8924 10.3372V1.20418L19.0676 1.19433C19.3268 1.17975 19.5851 1.17975 19.8374 1.17975H20.5052V2.39378H20.5194V10.5497L21.9288 2.6764L21.9289 2.67593L22.1408 1.47487L22.2817 0.718675L22.2819 0.717886L22.4125 0ZM19.7652 28.0194C24.3223 28.0194 28.0167 24.2992 28.0167 19.7102C28.0167 15.1212 24.3223 11.401 19.7652 11.401C15.208 11.401 11.5137 15.1212 11.5137 19.7102C11.5137 24.2992 15.208 28.0194 19.7652 28.0194Z" fill="#005AEE"/>
</svg>
