<svg width="571" height="571" viewBox="0 0 571 571" fill="none" xmlns="http://www.w3.org/2000/svg">
<circle cx="285.5" cy="285.5" r="285.5" fill="white"/>
<path d="M285.511 550C431.584 550 550 431.584 550 285.511C550 139.438 431.584 21.0222 285.511 21.0222C139.438 21.0222 21.0223 139.438 21.0223 285.511C21.0223 431.584 139.438 550 285.511 550Z" fill="white"/>
<path d="M534.887 197.313H371.917C378.996 253.815 379.038 316.071 372.054 372.644H535.233C544.759 345.352 549.996 316.042 549.996 285.505C550 254.566 544.642 224.898 534.887 197.313Z" fill="#EFECEC"/>
<path d="M371.917 197.313H534.882C534.857 197.229 534.832 197.159 534.798 197.083C500.953 101.632 413.877 31.4073 309.26 22.0854C349.741 44.2794 361.568 114.591 371.917 197.313Z" fill="#C42B27"/>
<path d="M309.26 548.907C414.069 539.568 501.267 469.101 534.987 373.396C535.075 373.141 535.15 372.891 535.242 372.644H372.059C361.789 455.811 349.912 526.621 309.26 548.907Z" fill="#0B0B0B"/>
<path d="M21 285.505C21 316.046 26.2456 345.352 35.7628 372.644H385.669C392.66 316.068 392.61 253.815 385.54 197.313H36.1146C26.3583 224.898 21 254.566 21 285.505Z" fill="#EFEFEF"/>
<path d="M36.1972 197.083C36.1727 197.158 36.147 197.229 36.1135 197.313H385.54C375.182 114.592 349.74 44.2794 309.254 22.0866C301.424 21.3931 293.506 21 285.495 21C170.434 21 72.5866 94.4869 36.1972 197.083Z" fill="#CC3434"/>
<path d="M385.67 372.644H35.7628C35.851 372.891 35.9337 373.141 36.0174 373.396C72.2606 476.254 170.25 550 285.496 550C293.506 550 301.424 549.607 309.255 548.906C349.912 526.621 375.4 455.811 385.67 372.644Z" fill="#151515"/>
<path d="M337.12 347.026C333.921 346.17 329.176 346.872 325.351 346.642C324.624 347.068 324.717 348.321 324.391 349.156C324.767 349.933 325.548 349.507 326.324 350.116C327.531 351.273 328.353 352.839 330.183 353.395C328.608 355.045 328.65 358.298 326.324 359.188C326.717 362.981 324.253 363.648 320.531 364.392C302.723 367.942 275.03 368.301 256.098 365.737C253.748 365.427 246.848 364.4 245.094 362.851C244.4 362.225 243.982 361.293 244.133 359.564C241.898 358.453 241.874 355.133 240.086 353.584C242.583 352.736 243.063 349.88 245.879 349.341C245.962 348.16 245.453 347.57 245.29 346.643C241.319 346.856 236.491 346.196 233.137 347.027C233.447 342.713 233.546 337.81 233.914 332.753C234.404 325.991 234.332 318.069 234.875 311.34C235.159 307.907 235.046 304.357 235.268 300.924C235.669 294.404 235.381 287.931 235.849 281.821C236.346 275.231 236.116 268.19 236.617 261.958C237.131 255.498 238.91 250.336 246.453 250.953C255.394 251.697 261.011 259.185 270.758 259.248C275.286 256.449 278.58 245.578 277.315 237.451C276.734 233.692 272.754 228.259 268.833 230.314C268.252 223.974 274.292 224.826 278.28 226.84C279.495 226.079 279.855 225.01 281.175 224.718C284.445 223.991 288.646 225.478 290.245 226.456C293.282 228.314 294.689 232.436 294.684 237.648C294.677 240.346 294.075 243.031 294.291 245.746C294.772 251.505 296.73 256.187 299.119 259.06C308.173 259.891 314.83 251.827 323.614 250.953C327.352 250.586 330.468 251.989 332.105 254.428C334.602 263.695 333.809 273.931 334.611 284.331C335.091 290.561 334.807 297.073 335.191 303.433C336.064 317.812 336.494 332.25 337.12 347.026ZM293.711 246.13C293.318 240.893 294.772 235.28 292.942 230.502C292.086 229.687 291.589 228.509 290.428 227.996C289.468 227.996 288.503 227.996 287.543 227.996C286.098 228.773 285.567 230.377 284.068 230.694C280.501 231.454 280.218 228.067 277.512 227.031C276.81 226.755 275.858 226.91 274.998 226.638C272.412 225.848 270.88 224.926 269.598 228.571C274.321 228.295 278.539 229.819 279.63 233.783C276.932 233.031 277.688 235.453 277.892 237.053C278.886 245.004 277.115 251.411 274.418 255.771C273.136 257.851 271.491 259.476 270.56 261.367C273.366 260.846 275.901 261.008 277.313 259.238C279.205 256.882 278.796 251.841 280.011 249.018C279.898 255.007 278.198 259.425 275.388 262.712C282.261 261.743 283.456 256.009 284.066 249.018C284.571 252.484 283.648 256.197 282.517 258.661C283.407 259.773 283.912 261.264 285.223 261.948C286.309 261.042 287.115 259.852 287.729 258.474C286.727 256.198 285.537 252.063 286.572 249.019C286.484 256.44 288.514 261.745 294.874 262.713C292.315 259.477 289.842 254.114 290.623 248.823C290.844 252.974 291.847 256.344 293.129 259.434C294.9 260.562 297.134 261.222 299.89 261.367C296.81 257.615 294.208 252.624 293.711 246.13ZM281.566 228.576C281.566 228.831 281.566 229.09 281.566 229.345C282.029 229.27 281.983 229.704 282.522 229.541C282.692 229.32 282.785 229.027 282.718 228.581C282.468 228.318 281.808 228.318 281.566 228.576ZM244.33 251.53C240.066 251.864 237.764 255.431 237.773 259.636C239.64 258.993 241.419 257.248 243.369 257.319C242.325 286.349 241.052 312.76 239.895 341.434C238.216 343.017 236.07 344.157 234.879 346.254C238.354 346.254 241.829 346.254 245.296 346.254C245.843 341.652 251.014 340.708 255.328 342.003C257.374 334.924 259.454 327.874 261.317 320.591C259.401 321.764 258.422 323.87 256.489 325.03C257.183 306.466 258.122 288.399 258.807 269.472C261.784 271.789 266.621 271.928 271.344 271.21C276.998 270.345 281.889 267.213 285.422 265.033C289.126 268.319 295.913 271.068 302.787 271.589C307.067 271.915 309.043 270.521 311.662 269.852C312.063 288.767 313.416 307.267 313.784 325.222C312.209 323.769 310.91 322.048 309.16 320.778C310.865 328.079 313.082 334.865 314.944 342.003C319.438 340.583 324.399 341.815 325.172 346.254C328.571 346.125 332.497 346.509 335.579 346.058C334.364 343.903 331.369 343.285 330.571 341.042C329.666 338.516 330.325 334.666 330.187 331.391C329.126 308.063 327.644 280.507 327.097 257.131C329.281 257.645 330.667 258.961 332.693 259.638C332.259 254.989 330.329 251.823 325.94 251.531C315.955 250.863 310.196 260.046 300.093 259.825C300.093 261.049 302.06 261.325 301.831 262.142C299.898 262.005 297.036 261.859 295.078 261.182C294.89 262.251 296.832 262.74 297.003 264.068C293.169 263.417 290.291 261.8 287.94 259.636C287.042 260.918 286.236 262.306 285.045 263.299C284.027 262.142 283.396 260.568 282.151 259.636C280.122 261.979 277.298 263.528 273.285 263.879C273.849 262.902 275.013 262.526 275.21 261.181C273.431 261.798 270.47 262.208 268.457 261.958C269.054 261.257 270.073 260.998 270.194 259.828C260.601 260.095 253.923 250.79 244.33 251.53ZM263.04 272.374C263.424 293.523 271.489 308.679 285.413 316.937C298.685 308.208 307.109 293.616 307.217 272.374C300.414 272.286 295.619 271.297 291.401 269.48C289.029 268.461 286.744 266.585 284.844 266.005C279.599 270.144 272.42 272.366 263.04 272.374ZM263.424 286.453C263.245 295.825 261.746 307.267 262.464 316.935C264.431 311.723 263.883 305.116 264.202 298.226C264.415 293.611 265.359 288.942 263.621 285.876C263.629 286.139 263.528 286.294 263.424 286.453ZM306.257 303.818C306.257 309.005 306.511 314.062 308.182 317.123C308.379 306.862 307.088 296.191 307.034 286.06C306.779 286.052 306.767 285.822 306.453 285.872C305.112 290.963 306.257 297.528 306.257 303.818ZM266.515 314.814C268.176 312.938 270.031 311.255 271.53 309.208C271.275 305.032 270.265 301.608 268.056 299.377C267.454 304.331 262.689 310.725 266.515 314.814ZM298.923 309.406C300.735 311.077 302.284 314.017 304.322 314.815C307.2 310.124 303.048 305.092 302.594 299.763C302.339 299.755 302.318 299.508 302.005 299.575C300.089 301.95 298.965 305.138 298.923 309.406ZM273.071 318.092C274.85 316.201 276.392 314.071 277.89 311.915C275.492 310.007 273.747 307.447 271.53 305.35C272.027 309.615 272.307 314.088 273.071 318.092ZM292.558 312.103C294.246 314.079 295.436 316.555 297.574 318.092C297.967 313.916 298.284 309.673 298.918 305.743C298.901 305.505 298.86 305.287 298.534 305.35C296.752 307.815 294.625 309.937 292.558 312.103ZM265.934 315.963C265.696 314.722 265.044 313.9 264.777 312.693C263.115 314.911 262.919 318.231 262.079 321.175C261.769 322.252 261.027 323.134 261.118 324.265C263.327 323.317 264.234 321.074 266.518 320.21C266.927 322.118 267.879 323.472 268.443 325.225C270.231 324.369 270.148 321.655 271.73 320.594C272.603 323.701 273.518 326.775 274.616 329.665C276.671 327.927 279.014 326.465 279.631 323.296C278.474 320.66 277.413 317.929 276.352 315.198C274.787 316.266 273.793 318.94 272.494 319.637C272.143 316.446 272.357 312.704 271.14 310.378C269.551 312.383 267.917 314.338 265.934 315.963ZM297.958 319.821C296.554 318.393 295.586 316.542 294.099 315.198C293.544 316.463 292.892 317.712 292.362 319.056C291.831 320.401 290.878 322.059 290.82 323.299C290.674 326.327 294.011 327.743 295.836 329.668C296.684 326.657 297.06 323.174 298.342 320.597C299.54 322.105 300.08 324.268 301.816 325.229C302.706 323.613 303.324 321.721 304.134 320.017C305.783 321.462 307.308 323.028 309.149 324.268C308.309 320.785 307.257 315.873 305.675 312.5C305.282 313.774 304.768 314.93 304.134 315.966C302.338 314.228 300.976 312.048 298.922 310.566C298.342 313.394 298.109 316.568 297.958 319.821ZM278.279 312.496C275.155 314.722 278.622 319.24 279.828 321.763C280.375 319.538 280.88 317.278 281.369 315.002C280.309 314.2 279.29 313.353 278.279 312.496ZM289.084 315.194C289.665 317.379 289.694 320.114 290.822 321.76C291.899 319.484 292.697 316.941 293.707 314.615C293.16 313.817 292.809 312.81 291.782 312.493C291.322 313.824 289.622 313.932 289.084 315.194ZM265.742 320.978C264.226 322.553 262.764 324.178 260.726 325.23C259.382 329.122 262.163 332.425 263.424 335.45C265.179 334.175 265.931 331.899 267.676 330.631C268.377 332.89 268.858 335.362 269.993 337.187C271.885 335.859 272.971 332.719 274.805 331.983C275.23 334.071 275.205 336.598 276.354 337.963C277.038 334.276 277.919 330.785 278.663 327.155C277.105 327.472 275.969 329.853 274.42 330.826C273.352 328.036 272.658 324.879 271.535 322.14C270.019 323.201 269.806 325.564 268.444 326.771C267.659 324.724 267.103 322.457 265.742 320.978ZM301.621 326.771C300.519 325.172 299.866 323.134 298.147 322.14C297.453 325.042 296.663 327.858 296.034 330.826C294.425 329.904 293.348 327.465 291.782 327.155C292.559 330.939 292.997 335.07 294.48 338.151C294.797 335.9 295.181 333.707 295.834 331.791C297.571 333.462 298.477 335.959 300.653 337.191C301.258 334.898 302.081 332.835 302.775 330.634C304.407 332.029 305.18 334.271 307.026 335.453C308.095 332.354 310.81 329.464 309.72 325.43C307.715 324.155 306.22 322.373 304.32 320.986C303.196 322.682 302.79 325.1 301.621 326.771ZM280.602 342.006C279.608 342.561 278.907 343.41 277.896 343.939C277.487 343.459 276.297 341.884 275.97 342.586C275.704 343.354 275.67 344.348 275.39 345.1C277.231 345.271 280.873 344.561 281.75 346.257C284.36 345.897 286.465 346.746 288.503 346.257C289.264 346.069 289.857 345.246 290.625 345.1C292.061 344.816 293.456 345.354 294.877 345.1C294.613 344.26 294.819 342.97 294.288 342.402C293.023 342.351 293.244 343.789 291.979 343.746C291.319 342.865 290.128 342.505 289.465 341.624C288.73 336.258 288.266 330.603 287.155 325.612C286.716 330.944 287.94 336.266 287.727 342.008C286.692 342.899 286.195 344.335 285.029 345.099C284.59 343.808 282.837 343.149 282.515 341.436C281.675 336.72 284.269 329.412 283.103 325.612C282.021 330.826 281.783 336.895 280.602 342.006ZM255.903 342.203C256.726 342.724 257.682 343.125 259.182 342.971C260.447 341.48 261.312 339.576 262.845 338.348C263.529 340.427 264.249 342.482 265.171 344.328C265.61 344.328 266.069 344.328 266.516 344.328C267.56 343.063 268.141 341.325 269.214 340.085C269.891 341.593 270.216 343.456 270.943 344.904C271.824 345.255 273.252 345.042 274.417 345.101C276.367 341.797 275.608 336.552 274.229 333.145C272.458 334.719 271.414 337.012 269.598 338.544C268.813 336.309 268.529 333.57 267.084 331.988C265.74 333.52 264.532 335.207 263.234 336.806C261.863 334.384 261.479 330.968 259.563 329.088C258.53 333.637 257.218 337.922 255.903 342.203ZM307.029 336.802C305.693 335.177 304.728 333.172 302.974 331.983C301.843 333.867 301.667 336.723 300.461 338.54C298.977 336.869 297.637 334.046 295.837 333.328C294.947 337.265 293.782 341.81 296.034 345.096C297.136 345.046 298.489 345.243 299.312 344.9C300.203 343.546 300.348 341.442 301.238 340.081C302.052 341.517 302.925 342.887 303.744 344.324C304.265 344.324 304.779 344.324 305.285 344.324C306.149 342.294 306.747 339.993 307.799 338.147C308.843 339.997 310.092 341.638 311.462 343.162C312.54 342.886 313.901 342.899 314.357 342.005C313.049 337.845 311.959 333.473 310.694 329.279C310.497 329.279 310.309 329.279 310.113 329.279C309.201 331.899 308.124 334.363 307.029 336.802ZM259.761 343.363C261.386 343.551 262.618 344.107 264.393 344.131C263.783 342.49 263.487 340.535 262.271 339.508C261.62 340.971 260.258 341.739 259.761 343.363ZM306.06 344.128C307.162 344.224 309.021 343.518 310.499 343.36C310.353 342.195 308.85 340.783 307.993 339.697C306.778 340.602 306.524 342.482 306.06 344.128ZM267.283 344.52C267.917 344.913 269.242 344.624 270.178 344.717C269.81 343.598 269.877 342.056 268.833 341.626C268.26 342.537 267.583 343.33 267.283 344.52ZM300.276 344.717C301.174 344.717 302.081 344.717 302.974 344.717C302.72 343.288 302.24 342.098 301.041 341.626C300.994 342.775 300 343.86 300.276 344.717ZM318.99 342.006C314.48 342.992 308.616 344.7 302.978 345.293C298.639 345.74 294.755 345.874 290.628 345.677C289.497 346.901 290.081 348.304 290.825 349.536C294.746 350.124 299.153 349.853 302.978 349.339C302.764 345.246 307.626 344.231 308.182 348.571C312.35 347.656 317.015 347.234 320.335 345.481C320.368 343.852 320.361 342.244 318.99 342.006ZM263.816 344.904C260.505 344.432 256.045 342.866 253.008 342.206C251.287 341.83 250.774 342.139 250.122 342.974C250.122 343.88 250.122 344.787 250.122 345.68C253.673 347.142 258.037 347.793 262.275 348.575C262.635 344.22 267.529 345.034 267.283 349.343C271.477 349.849 275.147 350.129 279.445 349.54C280.301 348.187 280.864 347.189 279.829 345.682C274.671 345.794 270.056 345.807 263.816 344.904ZM246.264 347.218C247.601 346.875 248.636 346.249 249.543 345.481C249.455 344.541 249.739 343.221 249.346 342.586C247.182 342.887 245.641 344.788 246.264 347.218ZM320.916 345.677C321.885 346.311 322.866 346.951 324.195 347.218C324.65 344.942 323.272 342.887 321.112 342.587C320.711 343.28 321.004 344.675 320.916 345.677ZM264.777 350.881C265.195 350.401 265.788 350.096 266.318 349.724C266.455 348.175 266.26 346.959 265.55 346.258C262.159 345.785 262.288 350.505 264.777 350.881ZM303.939 349.536C304.215 350.203 305.104 350.35 305.865 350.88C306.654 350.446 307.029 349.598 307.602 348.955C307.505 344.724 302.653 346.454 303.939 349.536ZM261.883 349.151C256.746 348.981 251.572 345.376 247.028 347.61C246.882 348.549 246.188 348.947 246.447 350.304C244.272 350.074 241.765 352.973 241.627 353.975C241.327 356.167 243.511 357.759 244.709 359.187C244.572 360.54 244.83 361.504 245.29 362.26C261.62 367.669 288.602 367.782 308.758 365.547C314.681 364.887 324.119 364.282 325.739 360.916C325.739 360.147 325.739 359.375 325.739 358.598C327.878 358.034 328.219 355.687 328.821 353.583C327.109 352.464 326.529 350.221 323.806 350.116C324.344 349.339 323.429 348.633 323.422 347.799C321.016 345.753 318.143 347.252 314.743 347.987C310.069 349.005 307.008 349.014 305.86 352.43C305.38 351.24 304.227 350.718 303.354 349.916C299.666 350.455 294.814 350.848 291.012 350.113C290.01 351.679 287.805 352.046 287.538 354.356C286.991 352.911 286.076 351.829 286.185 349.724C285.55 349.724 284.894 349.724 284.259 349.724C283.983 351.52 283.591 353.174 282.71 354.356C282.556 352.005 280.263 351.796 279.44 350.113C275.711 350.977 270.37 350.197 267.083 350.113C265.763 350.522 265.199 351.688 264.197 352.431C264.051 350.718 262.656 350.246 261.883 349.151ZM282.911 346.83C283.149 347.824 283.809 348.379 284.265 349.156C286.616 349.636 286.825 347.991 287.544 346.83C286.41 346.517 284.043 346.517 282.911 346.83ZM280.209 350.116C281.032 350.956 281.85 351.821 283.103 352.238C283.855 350.238 283.333 347.273 281.17 347.026C281.344 348.551 280.046 348.596 280.209 350.116ZM288.508 347.026C287.309 347.891 285.802 351.098 287.73 352.238C288.465 351.29 289.776 350.939 290.244 349.724C289.434 349.055 289.614 347.389 288.508 347.026Z" fill="#EEBC31"/>
<path d="M247.609 333.524C245.529 335.358 243.098 337.88 241.052 339.113C241.967 312.781 243.645 285.727 244.526 258.48C246.519 259.386 248.703 261.75 250.507 263.496C249.671 287.053 248.577 308.645 247.609 333.524Z" fill="#EEBC31"/>
<path d="M329.407 338.924C328.304 339.137 327.231 337.332 326.128 336.41C324.879 335.375 323.413 334.509 322.653 333.328C321.438 313.457 321.731 292.487 320.139 273.53C319.902 270.587 319.309 265.462 319.755 263.687C320.361 261.336 324.35 260.442 325.548 258.295C327.021 282.494 328.028 312.856 329.407 338.924Z" fill="#EEBC31"/>
<path d="M252.24 264.853C254.09 265.888 255.431 267.438 257.059 268.712C256.595 284.218 255.623 302.782 254.937 318.28C254.841 320.548 255.492 324.119 254.74 326.195C253.926 328.437 250.777 329.645 249.341 331.594C250.185 309.126 251.496 286.866 252.24 264.853Z" fill="#EEBC31"/>
<path d="M320.916 331.206C320.661 331.473 320.126 330.797 319.759 330.428C318.618 329.301 317.027 327.564 315.9 326.381C314.923 307.512 314.179 287.825 313.394 269.086C314.48 267.34 316.33 266.363 317.833 265.031C318.957 285.334 319.943 309.44 320.916 331.206Z" fill="#EEBC31"/>
<path d="M305.479 273.335C305.187 293.098 297.452 307.104 285.224 315.579C272.728 306.988 265.42 293.206 264.196 273.335C273.012 273.277 280.509 270.871 285.224 267.354C289.982 271.343 297.057 273.009 305.479 273.335ZM278.279 271.981C277.936 279.879 278.091 290.516 278.091 299.186C278.091 302.352 277.44 306.069 278.091 308.446C278.434 309.686 280.35 310.834 281.37 311.724C282.69 312.881 283.768 313.926 285.033 314.619C286.917 313.141 291.511 310.881 292.178 308.442C292.805 306.108 292.178 302.52 292.178 299.38C292.178 290.35 292.178 280.152 292.178 271.978C289.672 270.746 287.317 269.376 284.844 268.119C283.073 269.835 280.18 270.407 278.279 271.981Z" fill="#EEBC31"/>
<path d="M251.664 343.167C252.871 343.568 254.779 343.264 254.942 344.716C253.924 345.093 253.101 343.768 251.664 343.939C251.664 343.681 251.664 343.425 251.664 343.167Z" fill="#EEBC31"/>
<path d="M318.794 343.555C317.954 344.256 316.609 344.445 315.515 344.9C315.482 343.555 318.1 342.904 318.794 343.555Z" fill="#EEBC31"/>
<path d="M257.452 345.101C259.077 345.281 260.626 345.526 261.499 346.445C260.234 346.496 257.707 346.183 257.452 345.101Z" fill="#EEBC31"/>
<path d="M313.01 345.293C312.446 345.978 310.091 346.621 308.758 346.441C309.656 345.677 311.606 344.921 313.01 345.293Z" fill="#EEBC31"/>
<path d="M302.398 347.799C301.387 348.116 299.162 348.116 298.147 347.799C298.48 346.496 301.964 346.608 302.398 347.799Z" fill="#EEBC31"/>
<path d="M272.692 347.218C272.315 348.647 269.601 347.732 268.06 347.987C268.181 346.258 271.401 347.218 272.692 347.218Z" fill="#EEBC31"/>
<path d="M278.471 347.611C277.532 348.108 275.501 348.451 274.416 348.183C274.805 347.139 277.356 347.26 278.471 347.611Z" fill="#EEBC31"/>
<path d="M295.84 348.38C294.362 348.305 293.134 347.995 291.785 347.799C292.512 347.113 295.84 347.055 295.84 348.38Z" fill="#EEBC31"/>
<path d="M322.465 355.713C323.338 355.688 322.866 354.309 323.809 354.359C323.672 354.948 324.006 355.06 323.997 355.516C322.878 356.113 321.917 356.406 320.53 355.9C319.015 356.706 317.135 359.487 315.131 357.441C313.744 357.671 313.949 359.471 312.812 359.955C311.271 358.74 309.948 359.338 307.6 359.562C306.907 360.352 306.849 361.763 305.478 361.879C305.562 360.998 306.619 361.094 306.635 360.151C306.422 359.524 305.324 359.791 304.898 359.373C304.538 357.791 305.771 357.799 306.251 357.055C307.132 357.268 307.207 358.279 307.408 359.185C308.126 359.192 308.623 358.988 309.146 358.792C309.309 357.673 309.881 356.958 310.49 356.285C310.457 355.217 309.797 353.763 309.91 353.195C311.012 353.45 310.481 355.334 311.067 356.09C312.55 355.953 313.431 356.433 313.765 357.435C315.265 356.863 315.715 355.117 317.623 355.125C318.463 355.125 318.914 355.86 319.745 355.706C319.975 353.146 319.306 347.884 316.082 349.913C316.228 348.902 317.657 349.161 318.78 349.145C320.807 350.538 318.865 355.892 322.465 355.713ZM315.708 357.254C316.598 358.051 318.832 357.621 318.603 356.097C318.059 355.124 315.327 355.542 315.708 357.254ZM311.853 358.214C312.292 358.077 312.83 358.043 313.198 357.83C313.198 355.63 310.115 356.723 311.853 358.214ZM310.115 358.795C310.595 358.828 310.713 358.494 311.076 358.402C311.068 357.775 311.159 357.048 310.495 357.057C310.145 357.4 309.594 358.173 310.115 358.795ZM305.479 359.188C306.077 359.455 306.353 359.272 306.833 358.991C306.833 358.536 306.499 358.42 306.636 357.834C305.839 357.872 305.334 358.19 305.479 359.188ZM312.041 359.188C312.65 359.702 313.452 359.163 313.394 358.403C312.797 358.523 312.033 358.453 312.041 359.188Z" fill="#EEBC31"/>
<path d="M252.427 350.116C252.427 350.434 252.427 350.76 252.427 351.077C252.152 351.377 251.441 351.248 250.886 351.273C250.723 350.589 250.862 350.793 250.699 350.116C251.229 349.648 251.827 349.766 252.427 350.116Z" fill="#EEBC31"/>
<path d="M252.043 352.43C252.068 352.773 251.805 352.839 251.847 353.199C251.062 353.216 250.339 353.174 250.306 352.43C250.624 352.138 251.734 352.138 252.043 352.43Z" fill="#EEBC31"/>
<path d="M292.558 353.976C292.813 353.976 293.072 353.976 293.326 353.976C293.61 354.252 293.61 355.241 293.326 355.517C293.072 355.517 292.813 355.517 292.558 355.517C292.274 355.237 292.274 354.251 292.558 353.976Z" fill="#EEBC31"/>
<path d="M271.334 354.356C271.931 356.87 272.361 362.29 270.177 362.65C268.001 363.001 268.628 359.714 266.514 359.56C265.223 360.032 263.628 360.578 262.271 359.953C261.31 360.02 261.465 361.202 260.533 361.307C261.774 360.025 261.251 358.395 261.114 356.863C262.149 356.983 262.295 357.994 262.271 359.189C262.826 360.354 265.149 359.573 265.934 359.189C265.516 358.375 264.995 357.674 264.58 356.863C265.762 356.554 265.762 355.459 266.898 355.518C268.782 355.607 269.241 358.521 267.282 359.377C268.547 359.849 268.701 361.432 269.796 362.075C272.341 361.527 270.478 356.594 271.334 354.356ZM265.554 357.443C265.521 358.177 266.189 358.599 266.899 358.991C270.152 357.53 265.675 354.347 265.554 357.443Z" fill="#EEBC31"/>
<path d="M273.849 354.356C274.475 355.684 273.627 358.728 273.455 360.533C272.9 359.267 273.573 356.055 273.849 354.356Z" fill="#EEBC31"/>
<path d="M295.261 354.356C296.552 355.638 295.031 359.731 296.605 360.716C297.925 360.323 298.814 360.502 299.119 359.371C299.386 358.369 298 357.772 298.735 357.054C300.456 357.138 299.316 359.56 299.119 360.528C297.106 361.066 295.047 361.255 293.326 360.912C293.431 359.926 294.467 359.868 295.26 359.559C295.987 357.897 294.843 355.705 295.261 354.356Z" fill="#EEBC31"/>
<path d="M294.104 356.673C294.224 357.801 291.77 357.153 292.563 356.476C292.838 356.218 294.087 356.084 294.104 356.673Z" fill="#EEBC31"/>
<path d="M301.241 363.042C301.505 362.007 302.139 361.371 302.595 360.528C302.056 359.45 299.934 358.44 301.43 357.054C304.394 357.496 302.999 362.336 301.241 363.042ZM301.429 358.019C301.525 358.762 301.83 359.301 302.594 359.372C303.057 358.804 302.185 357.375 301.429 358.019Z" fill="#EEBC31"/>
<path d="M322.653 357.83C322.646 358.958 321.275 358.581 320.728 358.214C321.028 357.137 322.013 357.458 322.653 357.83Z" fill="#EEBC31"/>
<path d="M279.248 357.638C281.011 358.87 284.247 359.539 286.573 358.598C287.137 359.137 287.078 360.286 287.543 360.916C287.773 360.695 288.219 360.695 288.7 360.719C288.299 358.426 291.489 357.862 291.398 360.335C290.809 361.429 289.08 361.362 287.343 361.304C286.553 361.739 286.553 362.954 285.802 363.417C284.945 363.117 284.236 362.666 284.064 361.689C281.387 361.133 281.036 361.467 277.887 361.304C277.11 362.219 276.362 364.111 275.189 364.002C275.753 363.016 276.851 362.583 277.122 361.304C276.762 360.57 275.418 359.993 276.153 358.79C278.003 358.49 277.101 360.937 278.659 360.912C280.3 360.249 279.044 358.711 279.248 357.638ZM279.829 360.917C280.873 360.925 282.644 360.95 284.072 361.113C284.677 361.603 284.748 362.621 285.613 362.851C286.247 362.011 287.342 360.429 286.39 359.188C284.264 360.946 279.625 356.903 279.829 360.917ZM289.468 360.72C290.47 360.891 290.838 360.42 290.822 359.563C290.09 358.582 288.782 359.719 289.468 360.72Z" fill="#EEBC31"/>
<path d="M251.083 358.598C251.693 358.435 251.68 358.899 252.043 358.992C252.068 359.58 251.805 359.914 251.659 360.336C250.545 360.182 250.545 359.208 251.083 358.598Z" fill="#EEBC31"/>
<path d="M254.362 359.376C255.176 360.712 253.214 361.431 252.624 360.336C252.699 359.513 253.309 359.217 254.362 359.376Z" fill="#EEBC31"/>
<path d="M257.255 360.917C257.068 360.925 257.101 361.155 257.059 361.31C256.612 361.31 256.161 361.31 255.705 361.31C254.796 359.718 257.331 359.155 257.255 360.917Z" fill="#EEBC31"/>
<path d="M295.064 362.074C296.092 362.098 295.971 363.744 295.261 364.007C294.476 363.903 294.534 362.415 295.064 362.074Z" fill="#EEBC31"/>
<path d="M297.766 364.007C297.202 363.794 296.625 363.598 296.421 363.046C297.006 361.2 299.369 362.85 297.766 364.007Z" fill="#EEBC31"/>
<path d="M253.401 350.116C253.598 350.116 253.785 350.116 253.982 350.116C254.04 352.776 250.011 357.321 254.563 357.638C255.307 357.165 254.897 355.533 255.907 355.32C256.02 356.339 255.514 356.732 255.327 357.442C256.208 359.915 260.651 358.511 258.801 355.714C260.964 355.747 259.264 358.057 258.989 358.992C257.74 359.581 255.944 358.959 254.941 358.215C252.795 358.044 250.903 357.618 250.699 355.517C252.624 354.74 253.05 352.464 253.401 350.116Z" fill="#EEBC31"/>
</svg>
