<svg width="571" height="571" viewBox="0 0 571 571" fill="none" xmlns="http://www.w3.org/2000/svg">
<circle cx="285.5" cy="285.5" r="285.5" fill="white"/>
<path d="M285.5 550C431.579 550 550 431.579 550 285.5C550 139.421 431.579 21 285.5 21C139.421 21 21 139.421 21 285.5C21 431.579 139.421 550 285.5 550Z" fill="#F0F0F0"/>
<path d="M285.5 21C180.636 21 90.0283 82.0261 47.2454 170.5H523.754C480.972 82.0261 390.363 21 285.5 21V21Z" fill="#D80027"/>
<path d="M285.5 550C390.363 550 480.972 488.974 523.755 400.5H47.2454C90.0283 488.974 180.636 550 285.5 550Z" fill="#D80027"/>
<path d="M354.5 331.5L285.5 205L216.5 331.5H268.25V366H302.75V331.5H354.5Z" fill="#6DA544"/>
</svg>
