<svg width="571" height="571" viewBox="0 0 571 571" fill="none" xmlns="http://www.w3.org/2000/svg">
<circle cx="285.5" cy="285.5" r="285.5" fill="white"/>
<path d="M548.829 310.239H22.1929V310.246H548.829V310.239Z" fill="#C42126"/>
<path d="M521.379 165.848H49.6223V165.855H521.379V165.848Z" fill="#C42126"/>
<path d="M540.121 213.971H30.8625V213.978H540.121V213.971Z" fill="#C42126"/>
<path d="M134.682 502.741H436.323L436.338 502.724H134.665L134.682 502.741Z" fill="#C42126"/>
<path d="M285.498 21C280.303 21 275.149 21.1876 270.033 21.4802H300.967C295.847 21.1876 290.694 21 285.498 21Z" fill="#C42126"/>
<path d="M548.896 262.105H22.0923V262.112H548.896V262.105Z" fill="#C42126"/>
<path d="M363.675 117.724H489.976C474.974 99.4614 457.538 83.2947 438.222 69.6084H343.382C351.23 83.4153 357.978 99.7071 363.675 117.724Z" fill="#E7E7E7"/>
<path d="M343.382 69.6085H438.222C399.015 41.8238 351.943 24.4241 300.967 21.4802H292.823C316.816 24.5 327.837 42.2571 343.382 69.6085Z" fill="#DC3027"/>
<path d="M540.138 213.975C535.435 197.203 529.128 181.111 521.378 165.859H376.074C379.018 181.308 381.341 197.445 383.06 213.975H540.138Z" fill="#E7E7E7"/>
<path d="M367.901 165.852H521.373C512.628 148.65 502.121 132.507 489.976 117.728H355.911C360.639 132.692 364.652 148.834 367.901 165.852Z" fill="#DC3027"/>
<path d="M388.624 310.228H548.807C549.568 302.088 549.998 293.84 549.998 285.504C549.998 277.615 549.585 269.826 548.908 262.108H388.662C389.184 278.112 389.175 294.233 388.624 310.228Z" fill="#E7E7E7"/>
<path d="M548.912 262.1C547.463 245.574 544.485 229.496 540.138 213.984H376.313C377.958 229.741 379.044 245.862 379.575 262.1H548.912Z" fill="#DC3027"/>
<path d="M373.31 406.48H520.684C528.544 391.244 534.95 375.14 539.753 358.356H380.435C378.68 374.911 376.299 391.044 373.31 406.48Z" fill="#E7E7E7"/>
<path d="M539.758 358.352C544.197 342.846 547.279 326.767 548.812 310.236H383.633C383.069 326.487 381.95 342.603 380.272 358.352H539.758Z" fill="#DC3027"/>
<path d="M436.338 502.724C455.933 489.092 473.616 472.909 488.855 454.608H364.756C358.955 472.7 352.068 488.966 344.079 502.724H436.338Z" fill="#E7E7E7"/>
<path d="M360.087 454.605H488.855C501.142 439.842 511.809 423.699 520.683 406.481H372.227C368.933 423.511 364.878 439.661 360.087 454.605Z" fill="#DC3027"/>
<path d="M275.913 549.812C275.378 549.796 274.844 549.771 274.309 549.754C274.844 549.77 275.379 549.796 275.913 549.812Z" fill="#DC3027"/>
<path d="M285.498 550C341.574 550 393.531 532.496 436.323 502.741H340.596C323.607 532.012 312.397 550 285.498 550Z" fill="#DC3027"/>
<path d="M285.498 550C282.286 550 279.096 549.925 275.914 549.812C279.129 549.921 282.323 550 285.498 550Z" fill="#C42126"/>
<path d="M352.14 69.6084H132.782C113.463 83.2947 96.0308 99.4603 81.0244 117.724H372.429C366.732 99.7071 359.987 83.4153 352.14 69.6084Z" fill="#F3F4F5"/>
<path d="M132.782 69.6085H352.14C336.592 42.2571 316.817 24.5 292.823 21.4802H270.033C219.057 24.4241 171.985 41.8238 132.782 69.6085Z" fill="#E73625"/>
<path d="M30.8669 213.975H391.402C389.681 197.441 387.359 181.308 384.415 165.859H49.6269C41.8752 181.113 35.5698 197.203 30.8669 213.975Z" fill="#F3F4F5"/>
<path d="M81.0245 117.724C68.8882 132.504 58.3725 148.645 49.6313 165.848H384.415C381.17 148.834 377.157 132.693 372.429 117.724C372.429 117.724 81.0245 117.724 81.0245 117.724Z" fill="#E73625"/>
<path d="M21.002 285.504C21.002 293.84 21.4364 302.088 22.1925 310.228H394.633C395.185 294.232 395.193 278.115 394.671 262.112H22.0919C21.4152 269.826 21.002 277.615 21.002 285.504Z" fill="#F3F4F5"/>
<path d="M22.0923 262.1H394.667C394.137 245.859 393.047 229.742 391.405 213.984H30.8625C26.5148 229.499 23.5374 245.574 22.0923 262.1Z" fill="#E73625"/>
<path d="M391.272 358.352H31.2466C36.0499 375.141 42.4603 391.241 50.3159 406.476H384.147C387.138 391.044 389.513 374.911 391.272 358.352Z" fill="#F3F4F5"/>
<path d="M31.2467 358.352H391.272C392.948 342.603 394.07 326.482 394.634 310.236H22.1929C23.7251 326.771 26.8119 342.846 31.2467 358.352Z" fill="#E73625"/>
<path d="M134.665 502.724H351.333C359.323 488.963 366.214 472.7 372.011 454.608H82.1479C97.3877 472.909 115.065 489.092 134.665 502.724Z" fill="#F3F4F5"/>
<path d="M50.3203 406.48C59.1955 423.698 69.8609 439.841 82.1478 454.603H372.011C376.797 439.661 380.853 423.511 384.147 406.48H50.3203Z" fill="#E73625"/>
<path d="M274.309 549.753C274.844 549.77 275.378 549.794 275.913 549.811C279.096 549.924 282.286 549.999 285.497 549.999C312.397 549.999 334.331 532.012 351.324 502.74H134.682C174.604 530.505 222.523 547.594 274.309 549.753Z" fill="#E73625"/>
<path d="M280.03 21.1375C144.488 23.8948 34.0151 128.549 22.1257 261.669H280.035V21.1375H280.03Z" fill="#283991"/>
<path d="M73.9247 170.859L77.9541 183.267H91.0094L80.4479 190.939L84.4818 203.356L73.9247 195.679L63.371 203.356L67.397 190.939L56.8389 183.267H69.8942L73.9247 170.859Z" fill="#EFEFEF"/>
<path d="M73.9247 214.695L77.9541 227.11H91.0094L80.4479 234.783L84.4818 247.199L73.9247 239.522L63.371 247.199L67.397 234.783L56.8389 227.11H69.8942L73.9247 214.695Z" fill="#EFEFEF"/>
<path d="M117.768 105.09L121.799 117.502H134.849L124.291 125.179L128.322 137.587L117.768 129.919L107.21 137.587L111.24 125.179L100.678 117.502H113.733L117.768 105.09Z" fill="#EFEFEF"/>
<path d="M117.768 148.933L121.799 161.345H134.849L124.291 169.013L128.322 181.43L117.768 173.762L107.21 181.43L111.24 169.013L100.678 161.345H113.733L117.768 148.933Z" fill="#EFEFEF"/>
<path d="M117.768 192.777L121.799 205.193H134.849L124.291 212.857L128.322 225.273L117.768 217.597L107.21 225.273L111.24 212.857L100.678 205.193H113.733L117.768 192.777Z" fill="#EFEFEF"/>
<path d="M40.6387 225.273L36.6049 212.857L47.163 205.189H34.1155L33.8229 204.283C32.3901 208.714 31.0957 213.199 29.9019 217.735L30.0861 217.597L40.6387 225.273Z" fill="#EFEFEF"/>
<path d="M63.3711 159.513L73.9248 151.837L84.483 159.513L80.4492 147.096L91.0073 139.421H77.952L73.9215 127.013L69.891 139.421H65.0798C64.1864 140.774 63.322 142.135 62.4531 143.509L67.3983 147.096L63.3711 159.513Z" fill="#EFEFEF"/>
<path d="M117.768 86.0758L128.322 93.7437L124.291 81.3361L134.845 73.6604H127.307C120.904 78.447 114.727 83.5128 108.792 88.8577L107.201 93.7437L117.768 86.0758Z" fill="#EFEFEF"/>
<path d="M151.053 71.8265L161.611 64.1507L172.165 71.8265L168.134 59.4099L178.688 51.742H165.637L165.09 50.0713C160.667 52.3306 156.29 54.6814 152.013 57.183L155.079 59.4088L151.053 71.8265Z" fill="#EFEFEF"/>
<path d="M161.611 83.1733L165.642 95.5776H178.693L168.134 103.253L172.165 115.67L161.611 107.993L151.053 115.67L155.084 103.253L144.522 95.5776H157.576L161.611 83.1733Z" fill="#EFEFEF"/>
<path d="M161.611 127.016L165.642 139.421H178.693L168.134 147.096L172.165 159.513L161.611 151.836L151.053 159.513L155.084 147.096L144.522 139.421H157.576L161.611 127.016Z" fill="#EFEFEF"/>
<path d="M161.611 170.859L165.642 183.267H178.693L168.134 190.939L172.165 203.356L161.611 195.679L151.053 203.356L155.084 190.939L144.522 183.267H157.576L161.611 170.859Z" fill="#EFEFEF"/>
<path d="M161.611 214.695L165.642 227.11H178.693L168.134 234.783L172.165 247.199L161.611 239.522L151.053 247.199L155.084 234.783L144.522 227.11H157.576L161.611 214.695Z" fill="#EFEFEF"/>
<path d="M205.454 61.2471L209.485 73.6591H222.536L211.982 81.336L216.008 93.7436L205.454 86.0757L194.893 93.7436L198.927 81.336L188.365 73.6591H201.419L205.454 61.2471Z" fill="#EFEFEF"/>
<path d="M205.454 105.09L209.485 117.502H222.536L211.982 125.179L216.008 137.587L205.454 129.919L194.893 137.587L198.927 125.179L188.365 117.502H201.419L205.454 105.09Z" fill="#EFEFEF"/>
<path d="M205.454 148.933L209.485 161.345H222.536L211.982 169.013L216.008 181.43L205.454 173.762L194.893 181.43L198.927 169.013L188.365 161.345H201.419L205.454 148.933Z" fill="#EFEFEF"/>
<path d="M205.454 192.777L209.485 205.193H222.536L211.982 212.857L216.008 225.273L205.454 217.597L194.893 225.273L198.927 212.857L188.365 205.193H201.419L205.454 192.777Z" fill="#EFEFEF"/>
<path d="M249.297 39.3301L253.328 51.7421H266.379L255.82 59.4101L259.851 71.8266L249.297 64.1497L238.736 71.8266L242.77 59.4101L232.208 51.7421H245.259L249.297 39.3301Z" fill="#EFEFEF"/>
<path d="M249.297 83.1733L253.328 95.5776H266.379L255.82 103.253L259.851 115.67L249.297 107.993L238.736 115.67L242.77 103.253L232.208 95.5776H245.259L249.297 83.1733Z" fill="#EFEFEF"/>
<path d="M249.297 127.016L253.328 139.421H266.379L255.82 147.096L259.851 159.513L249.297 151.836L238.736 159.513L242.77 147.096L232.208 139.421H245.259L249.297 127.016Z" fill="#EFEFEF"/>
<path d="M249.297 170.859L253.328 183.267H266.379L255.82 190.939L259.851 203.356L249.297 195.679L238.736 203.356L242.77 190.939L232.208 183.267H245.259L249.297 170.859Z" fill="#EFEFEF"/>
<path d="M249.297 214.695L253.328 227.11H266.379L255.82 234.783L259.851 247.199L249.297 239.522L238.736 247.199L242.77 234.783L232.208 227.11H245.259L249.297 214.695Z" fill="#EFEFEF"/>
</svg>
