<svg width="394" height="125" viewBox="0 0 394 125" fill="none" xmlns="http://www.w3.org/2000/svg">
<path fill-rule="evenodd" clip-rule="evenodd" d="M80.2404 0H46.2375C20.8148 0 0.158877 13.0291 0.158877 29.395C0.158877 39.8818 8.58016 49.0976 21.4504 54.341C16.8425 50.2098 13.9825 44.6487 13.9825 38.6108C13.9825 25.4228 27.3294 14.777 43.6953 14.777H44.9664C45.2842 14.777 45.7609 14.777 46.0786 14.777H80.0815C92.6339 14.777 103.121 21.2916 103.121 29.5539H126.16C126.16 13.0292 105.663 0 80.2404 0ZM110.112 51.1632C113.925 54.8177 116.15 59.4256 116.15 64.5101C116.15 66.8935 115.673 69.2769 114.72 71.3425C113.449 74.3614 111.224 77.0626 108.523 79.1282C105.028 81.9883 100.579 83.8949 95.494 84.8483C95.3351 84.8483 95.0173 84.8482 94.8584 85.0071C99.943 82.306 103.28 78.1749 103.28 73.567C103.28 66.258 95.0173 60.22 84.2127 59.1078C82.9415 58.9489 81.6704 58.9489 80.2404 58.9489H74.6792H46.0786C41.9474 58.9489 37.8162 58.6311 34.0028 57.8367C30.6661 56.7244 27.8061 55.1355 25.2638 53.2288C20.497 49.4154 17.637 44.1719 17.637 38.4518C17.637 33.0495 20.1793 28.1239 24.4693 24.4694C23.6749 26.0583 23.1982 27.6472 23.1982 29.395C23.1982 37.4985 33.5262 44.172 46.2375 44.172H80.2404C85.0071 44.172 89.615 44.6487 93.9051 45.4431C95.1762 45.7609 96.2885 45.9198 97.4007 46.2376C102.167 47.5087 106.299 49.0976 110.112 51.1632ZM118.374 57.2011C119.328 59.4255 119.804 61.9679 119.804 64.5101C119.804 67.2113 119.169 69.7535 118.216 72.2958C115.832 77.6981 111.065 82.306 104.869 85.1661C100.42 87.2317 95.3351 88.3439 89.9328 88.3439H80.7171C80.5582 88.3439 80.2404 88.3439 80.0815 88.3439H46.0786C33.5262 88.3439 23.0393 81.8294 23.0393 73.567H0C0 89.9329 20.497 102.962 45.9197 102.962H79.9226C105.345 102.962 126.001 89.9329 126.001 73.567C126.16 67.5291 123.3 61.9678 118.374 57.2011Z" fill="white"/>
<path fill-rule="evenodd" clip-rule="evenodd" d="M345.113 0H311.11C285.687 0 265.031 13.0291 265.031 29.395C265.031 39.8818 273.453 49.0976 286.323 54.341C281.715 50.2098 278.855 44.6487 278.855 38.6108C278.855 25.4228 292.202 14.777 308.568 14.777H309.839C310.157 14.777 310.633 14.777 310.951 14.777H345.113C357.665 14.777 368.152 21.2916 368.152 29.5539H391.192C391.033 13.0292 370.536 0 345.113 0ZM374.985 51.1632C378.798 54.8177 381.023 59.4256 381.023 64.5101C381.023 66.8935 380.546 69.2769 379.592 71.3425C378.321 74.3614 376.097 77.0626 373.396 79.1282C369.9 81.9883 365.451 83.8949 360.367 84.8483C360.208 84.8483 359.89 84.8482 359.731 85.0071C364.816 82.306 368.152 78.1749 368.152 73.567C368.152 66.258 359.89 60.22 349.085 59.1078C347.814 58.9489 346.543 58.9489 345.113 58.9489H339.711H311.11C306.979 58.9489 302.848 58.6311 299.034 57.8367C295.698 56.7244 292.838 55.1355 290.295 53.2288C285.528 49.4154 282.668 44.1719 282.668 38.4518C282.668 33.0495 285.211 28.1239 289.501 24.4694C288.706 26.0583 288.23 27.6472 288.23 29.395C288.23 37.4985 298.558 44.172 311.269 44.172H345.113C349.88 44.172 354.488 44.6487 358.778 45.4431C360.049 45.7609 361.161 45.9198 362.273 46.2376C367.04 47.5087 371.171 49.0976 374.985 51.1632ZM383.247 57.2011C384.2 59.4255 384.677 61.9679 384.677 64.5101C384.677 67.2113 384.2 69.7535 383.088 72.2958C380.705 77.6981 375.938 82.306 369.741 85.1661C365.292 87.2317 360.208 88.3439 354.805 88.3439H345.59C345.431 88.3439 345.272 88.3439 344.954 88.3439H310.951C298.399 88.3439 287.912 81.8294 287.912 73.567H264.873C264.873 89.9329 285.37 102.962 310.792 102.962H345.113C370.536 102.962 391.192 89.9329 391.192 73.567C391.033 67.5291 388.173 61.9678 383.247 57.2011Z" fill="white"/>
<path fill-rule="evenodd" clip-rule="evenodd" d="M170.809 88.3439L147.452 102.962H247.236V88.3439H170.809ZM143.956 0H166.996V86.1194L143.956 100.579V0Z" fill="white"/>
<path fill-rule="evenodd" clip-rule="evenodd" d="M143.638 124.254V113.608H154.443V115.197H145.704V117.898H150.947V119.487H145.704V122.824H154.919V124.413H143.638V124.254ZM159.686 124.254V113.608H161.593L166.677 119.805L171.921 113.608H173.828V124.413H171.762V116.627L166.836 122.506L161.911 116.627V124.413H159.845V124.254H159.686ZM182.09 117.739H188.128C188.446 117.739 188.763 117.739 188.922 117.58C189.081 117.58 189.399 117.421 189.558 117.263C189.717 117.104 189.876 117.104 189.876 116.945C189.876 116.786 190.035 116.627 190.035 116.468C190.035 116.309 190.035 115.991 189.876 115.833C189.876 115.674 189.717 115.515 189.558 115.515C189.399 115.356 189.24 115.356 188.922 115.356C188.605 115.356 188.446 115.197 188.128 115.197H182.09V117.739ZM182.09 122.824H188.605C189.24 122.824 189.876 122.665 190.193 122.347C190.352 122.188 190.511 122.029 190.67 121.87C190.829 121.712 190.829 121.394 190.829 121.076C190.829 120.599 190.67 120.123 190.193 119.805C190.035 119.646 189.717 119.487 189.558 119.487C189.24 119.487 188.922 119.328 188.605 119.328H182.09V122.824V122.824ZM179.865 124.254V113.608H187.81C188.446 113.608 189.081 113.608 189.558 113.767C190.035 113.926 190.511 114.085 190.829 114.244C191.147 114.561 191.465 114.72 191.623 115.197C191.782 115.515 191.941 115.991 191.941 116.468C191.941 116.627 191.941 116.945 191.782 117.104C191.782 117.263 191.623 117.421 191.465 117.739C191.306 117.898 191.147 118.057 190.988 118.216C190.988 118.216 190.829 118.375 190.67 118.375C190.829 118.534 191.147 118.693 191.306 118.852C191.624 119.01 191.782 119.328 191.941 119.487C192.1 119.805 192.259 119.964 192.418 120.281C192.577 120.599 192.577 120.917 192.577 121.235C192.577 122.188 192.1 123.142 191.306 123.618C190.829 123.936 190.352 124.095 189.876 124.254C189.24 124.413 188.605 124.413 187.969 124.413H179.865V124.254ZM201.475 120.123H206.4L203.858 116.15L201.475 120.123ZM196.708 124.254L203.223 113.608H204.812C207.036 117.263 209.26 120.917 211.485 124.413H209.102L207.354 121.553H200.521L198.774 124.413H196.549L196.708 124.254ZM214.504 122.665L215.616 121.394L215.775 121.553C216.252 121.87 216.728 122.029 217.205 122.347C217.682 122.506 218.158 122.665 218.635 122.824C219.112 122.983 219.588 123.142 220.065 123.142C220.542 123.142 221.019 123.3 221.495 123.3C222.131 123.3 222.607 123.3 223.084 123.142C223.561 122.983 223.879 122.824 224.355 122.665C224.673 122.506 224.991 122.188 225.15 122.029C225.309 121.87 225.467 121.553 225.467 121.235C225.467 121.076 225.467 120.758 225.309 120.599C225.15 120.44 224.991 120.282 224.832 120.123C224.514 119.964 224.355 119.805 223.879 119.805C223.561 119.646 223.084 119.646 222.607 119.646H222.131H221.654C220.542 119.646 219.588 119.487 218.953 119.328C218.158 119.169 217.682 119.169 217.205 119.01C216.887 118.851 216.57 118.693 216.411 118.534C216.093 118.375 215.934 118.216 215.775 118.057C215.616 117.898 215.457 117.58 215.457 117.421C215.298 117.263 215.298 116.945 215.298 116.627C215.298 116.15 215.457 115.833 215.616 115.356C215.934 115.038 216.252 114.72 216.728 114.402C217.205 114.085 217.841 113.926 218.476 113.767C219.112 113.608 219.747 113.608 220.542 113.608C221.177 113.608 221.654 113.608 222.131 113.767C222.607 113.767 223.243 113.926 223.72 114.085C224.196 114.244 224.832 114.403 225.309 114.561C225.785 114.72 226.262 115.038 226.739 115.356L226.897 115.515L225.626 116.945L225.467 116.786C225.15 116.468 224.673 116.309 224.196 116.15C223.72 115.991 223.402 115.833 222.925 115.674C222.449 115.515 222.131 115.515 221.654 115.356C221.177 115.356 220.701 115.197 220.383 115.197C219.906 115.197 219.43 115.197 219.112 115.356C218.794 115.356 218.317 115.515 218.158 115.674C217.841 115.833 217.682 115.991 217.523 116.15C217.364 116.309 217.364 116.468 217.364 116.627V116.786C217.364 116.786 217.364 116.945 217.523 116.945L217.682 117.104C217.682 117.104 217.841 117.263 218 117.263C218.317 117.421 218.635 117.58 219.112 117.58C219.747 117.739 220.383 117.739 221.336 117.739C221.813 117.739 222.131 117.739 222.448 117.739C222.766 117.739 223.084 117.739 223.243 117.739C223.879 117.739 224.514 117.898 225.15 118.057C225.626 118.216 226.262 118.534 226.58 118.852C227.056 119.169 227.374 119.487 227.533 119.805C227.692 120.123 227.851 120.599 227.851 121.076C227.851 121.553 227.692 122.029 227.374 122.506C227.056 122.983 226.739 123.3 226.103 123.618C225.467 123.936 224.832 124.254 224.196 124.413C223.402 124.572 222.607 124.73 221.813 124.73C221.177 124.73 220.542 124.73 219.906 124.572C219.271 124.572 218.635 124.413 218.158 124.254C217.523 124.095 217.046 123.936 216.411 123.618C215.934 123.459 215.298 123.142 214.822 122.824L214.504 122.665ZM231.823 122.665L232.935 121.394L233.094 121.553C233.571 121.87 234.048 122.029 234.524 122.347C235.001 122.506 235.478 122.665 235.954 122.824C236.431 122.983 236.908 123.142 237.384 123.142C237.861 123.142 238.338 123.3 238.814 123.3C239.45 123.3 239.927 123.3 240.403 123.142C240.88 122.983 241.198 122.824 241.674 122.665C241.992 122.506 242.31 122.188 242.469 122.029C242.628 121.87 242.787 121.553 242.787 121.235C242.787 121.076 242.787 120.758 242.628 120.599C242.469 120.44 242.31 120.282 242.151 120.123C241.833 119.964 241.674 119.805 241.198 119.805C240.88 119.646 240.403 119.646 239.927 119.646H239.45H238.973C237.861 119.646 236.908 119.487 236.272 119.328C235.478 119.169 235.001 119.169 234.524 119.01C234.206 118.851 233.889 118.693 233.73 118.534C233.412 118.375 233.253 118.216 233.094 118.057C232.935 117.898 232.776 117.58 232.776 117.421C232.618 117.263 232.618 116.945 232.618 116.627C232.618 116.15 232.776 115.833 232.935 115.356C233.253 115.038 233.571 114.72 234.048 114.402C234.524 114.085 235.16 113.926 235.795 113.767C236.431 113.608 237.067 113.608 237.861 113.608C238.497 113.608 238.973 113.608 239.45 113.767C239.927 113.767 240.562 113.926 241.039 114.085C241.516 114.244 242.151 114.403 242.628 114.561C243.104 114.72 243.581 115.038 244.058 115.356L244.217 115.515L242.946 116.945L242.787 116.786C242.469 116.468 241.992 116.309 241.516 116.15C241.039 115.991 240.721 115.833 240.244 115.674C239.768 115.515 239.45 115.515 238.973 115.356C238.497 115.356 238.02 115.197 237.702 115.197C237.225 115.197 236.749 115.197 236.431 115.356C236.113 115.356 235.637 115.515 235.478 115.674C235.16 115.833 235.001 115.991 234.842 116.15C234.683 116.309 234.683 116.468 234.683 116.627V116.786C234.683 116.786 234.683 116.945 234.842 116.945L235.001 117.104C235.001 117.104 235.16 117.263 235.319 117.263C235.637 117.421 235.954 117.58 236.431 117.58C237.067 117.739 237.702 117.739 238.655 117.739C239.132 117.739 239.45 117.739 239.768 117.739C240.086 117.739 240.403 117.739 240.562 117.739C241.198 117.739 241.833 117.898 242.469 118.057C242.946 118.216 243.581 118.534 243.899 118.852C244.376 119.169 244.693 119.487 244.852 119.805C245.011 120.123 245.17 120.599 245.17 121.076C245.17 121.553 245.011 122.029 244.693 122.506C244.376 122.983 244.058 123.3 243.422 123.618C242.787 123.936 242.151 124.254 241.516 124.413C240.721 124.572 239.927 124.73 239.132 124.73C238.497 124.73 237.861 124.73 237.225 124.572C236.59 124.572 235.954 124.413 235.478 124.254C234.842 124.095 234.365 123.936 233.73 123.618C233.253 123.459 232.618 123.142 232.141 122.824L231.823 122.665ZM253.115 124.254V119.01L246.918 113.449H249.619L254.227 117.421L258.835 113.449H261.536L255.339 119.01V124.413H253.274V124.254H253.115ZM271.069 122.665L272.182 121.394L272.341 121.553C272.817 121.87 273.294 122.029 273.771 122.347C274.247 122.506 274.724 122.665 275.201 122.824C275.677 122.983 276.154 123.142 276.631 123.142C277.107 123.142 277.584 123.3 278.061 123.3C278.696 123.3 279.173 123.3 279.65 123.142C280.126 122.983 280.444 122.824 280.921 122.665C281.238 122.506 281.556 122.188 281.715 122.029C281.874 121.87 282.033 121.553 282.033 121.235C282.033 121.076 282.033 120.758 281.874 120.599C281.715 120.44 281.556 120.282 281.397 120.123C281.08 119.964 280.921 119.805 280.444 119.805C280.126 119.646 279.65 119.646 279.173 119.646H278.696H278.22C277.107 119.646 276.154 119.487 275.518 119.328C274.724 119.169 274.247 119.169 273.771 119.01C273.453 118.851 273.135 118.693 272.976 118.534C272.658 118.375 272.499 118.216 272.341 118.057C272.182 117.898 272.023 117.58 272.023 117.421C271.864 117.263 271.864 116.945 271.864 116.627C271.864 116.15 272.023 115.833 272.182 115.356C272.499 115.038 272.817 114.72 273.294 114.402C273.771 114.085 274.406 113.926 275.042 113.767C275.677 113.608 276.313 113.608 277.107 113.608C277.743 113.608 278.22 113.608 278.696 113.767C279.173 113.767 279.808 113.926 280.285 114.085C280.762 114.244 281.397 114.403 281.874 114.561C282.351 114.72 282.827 115.038 283.304 115.356L283.463 115.515L282.192 116.945L282.033 116.786C281.715 116.468 281.238 116.309 280.762 116.15C280.285 115.991 279.967 115.833 279.491 115.674C279.014 115.515 278.696 115.515 278.22 115.356C277.743 115.356 277.266 115.197 276.948 115.197C276.472 115.197 275.995 115.197 275.677 115.356C275.359 115.356 274.883 115.515 274.724 115.674C274.406 115.833 274.247 115.991 274.088 116.15C273.929 116.309 273.929 116.468 273.929 116.627V116.786C273.929 116.786 273.929 116.945 274.088 116.945L274.247 117.104C274.247 117.104 274.406 117.263 274.565 117.263C274.883 117.421 275.201 117.58 275.677 117.58C276.313 117.739 276.948 117.739 277.902 117.739C278.378 117.739 278.696 117.739 279.014 117.739C279.332 117.739 279.65 117.739 279.808 117.739C280.444 117.739 281.08 117.898 281.715 118.057C282.192 118.216 282.827 118.534 283.145 118.852C283.622 119.169 283.94 119.487 284.099 119.805C284.257 120.123 284.416 120.599 284.416 121.076C284.416 121.553 284.257 122.029 283.94 122.506C283.622 122.983 283.304 123.3 282.669 123.618C282.033 123.936 281.397 124.254 280.762 124.413C279.967 124.572 279.173 124.73 278.378 124.73C277.743 124.73 277.107 124.73 276.472 124.572C275.836 124.572 275.201 124.413 274.724 124.254C274.088 124.095 273.612 123.936 272.976 123.618C272.499 123.459 271.864 123.142 271.387 122.824L271.069 122.665ZM289.66 124.254V113.608H300.464V115.197H291.725V117.898H296.969V119.487H291.725V122.824H300.941V124.413H289.66V124.254ZM307.773 118.216H313.335C314.129 118.216 314.606 118.057 315.082 117.898C315.241 117.739 315.4 117.58 315.559 117.421C315.718 117.263 315.718 116.945 315.718 116.786C315.718 116.468 315.718 116.309 315.559 116.15C315.4 115.991 315.4 115.833 315.082 115.674C314.924 115.515 314.606 115.515 314.447 115.356C314.129 115.356 313.811 115.197 313.494 115.197H307.932V118.216H307.773ZM305.549 124.254V113.608H313.335C313.97 113.608 314.606 113.608 315.082 113.767C315.559 113.926 316.036 114.085 316.512 114.402C316.83 114.72 317.148 115.038 317.466 115.356C317.625 115.674 317.784 116.15 317.784 116.627C317.784 117.104 317.784 117.421 317.625 117.739C317.466 118.057 317.307 118.375 316.989 118.693C316.671 119.01 316.354 119.169 315.877 119.328C315.559 119.487 315.241 119.646 314.924 119.646L318.26 124.254H315.877L312.54 119.646H307.932V124.254H305.867H305.549ZM328.429 124.413H327.317L320.803 113.608H323.186L328.112 121.712L333.037 113.608H335.421C333.037 117.263 330.813 120.917 328.429 124.413ZM339.234 124.254V113.449H341.459V124.413H339.234V124.254ZM358.46 120.758L359.89 121.712L359.731 121.87C359.413 122.347 359.095 122.824 358.619 123.142C358.142 123.459 357.665 123.777 357.189 124.095C356.712 124.413 356.077 124.572 355.441 124.73C354.805 124.889 354.17 124.889 353.534 124.889C352.581 124.889 351.628 124.731 350.833 124.413C350.039 124.095 349.244 123.777 348.609 123.142C347.973 122.665 347.496 122.029 347.179 121.235C346.861 120.599 346.702 119.805 346.702 119.01C346.702 118.216 346.861 117.421 347.179 116.786C347.496 116.15 347.973 115.515 348.609 114.879C349.244 114.403 350.039 113.926 350.833 113.608C351.628 113.29 352.581 113.131 353.534 113.131C354.17 113.131 354.805 113.131 355.282 113.29C355.918 113.449 356.394 113.608 356.871 113.767C357.348 113.926 357.824 114.244 358.301 114.561C358.778 114.879 359.095 115.197 359.413 115.674L359.572 115.833L357.824 116.786L357.665 116.627C357.507 116.309 357.189 115.991 357.03 115.833C356.712 115.674 356.394 115.356 356.077 115.197C355.759 115.038 355.282 114.879 354.964 114.879C354.488 114.72 354.17 114.72 353.693 114.72C353.058 114.72 352.422 114.879 351.786 115.038C351.151 115.197 350.674 115.515 350.198 115.833C349.721 116.15 349.403 116.627 349.244 117.104C349.085 117.58 348.926 118.057 348.926 118.693C348.926 119.328 349.085 119.805 349.244 120.281C349.403 120.758 349.88 121.235 350.198 121.553C350.674 121.87 351.151 122.188 351.786 122.347C352.422 122.506 353.058 122.665 353.693 122.665C354.17 122.665 354.646 122.665 355.123 122.506C355.6 122.347 355.918 122.188 356.394 122.029C356.712 121.87 357.189 121.553 357.507 121.394C357.824 121.076 358.142 120.758 358.301 120.44L358.46 120.281V120.758ZM365.133 124.254V113.608H375.938V115.197H367.199V117.898H372.442V119.487H367.199V122.824H376.415V124.413H365.133V124.254ZM380.069 122.665L381.181 121.394L381.34 121.553C381.817 121.87 382.294 122.029 382.77 122.347C383.247 122.506 383.724 122.665 384.2 122.824C384.677 122.983 385.154 123.142 385.63 123.142C386.107 123.142 386.584 123.3 387.06 123.3C387.696 123.3 388.173 123.3 388.649 123.142C389.126 122.983 389.444 122.824 389.921 122.665C390.238 122.506 390.556 122.188 390.715 122.029C390.874 121.87 391.033 121.553 391.033 121.235C391.033 121.076 391.033 120.758 390.874 120.599C390.715 120.44 390.556 120.282 390.397 120.123C390.079 119.964 389.92 119.805 389.444 119.805C389.126 119.646 388.649 119.646 388.173 119.646H387.696H387.219C386.107 119.646 385.154 119.487 384.518 119.328C383.724 119.169 383.247 119.169 382.77 119.01C382.453 118.851 382.135 118.693 381.976 118.534C381.658 118.375 381.499 118.216 381.34 118.057C381.181 117.898 381.023 117.58 381.023 117.421C380.864 117.263 380.864 116.945 380.864 116.627C380.864 116.15 381.023 115.833 381.181 115.356C381.499 115.038 381.817 114.72 382.294 114.402C382.77 114.085 383.406 113.926 384.041 113.767C384.677 113.608 385.313 113.608 386.107 113.608C386.743 113.608 387.219 113.608 387.696 113.767C388.173 113.767 388.808 113.926 389.285 114.085C389.762 114.244 390.397 114.403 390.874 114.561C391.35 114.72 391.827 115.038 392.304 115.356L392.463 115.515L391.192 116.627L391.033 116.468C390.715 116.15 390.238 115.991 389.762 115.833C389.285 115.674 388.967 115.515 388.49 115.356C388.014 115.197 387.696 115.197 387.219 115.038C386.743 115.038 386.266 114.879 385.948 114.879C385.472 114.879 384.995 114.879 384.677 115.038C384.359 115.038 383.883 115.197 383.724 115.356C383.406 115.515 383.247 115.674 383.088 115.833C382.929 115.991 382.929 116.15 382.929 116.309V116.468C382.929 116.468 382.929 116.627 383.088 116.627L383.247 116.786C383.247 116.786 383.406 116.945 383.565 116.945C383.883 117.104 384.2 117.263 384.677 117.263C385.313 117.421 385.948 117.421 386.902 117.421C387.378 117.421 387.696 117.421 388.014 117.421C388.332 117.421 388.649 117.421 388.808 117.421C389.444 117.421 390.079 117.58 390.715 117.739C391.192 117.898 391.827 118.216 392.145 118.534C392.622 118.851 392.939 119.169 393.098 119.487C393.257 119.805 393.416 120.281 393.416 120.758C393.416 121.235 393.257 121.712 392.939 122.188C392.622 122.665 392.304 122.983 391.668 123.3C391.033 123.618 390.397 123.936 389.762 124.095C388.967 124.254 388.173 124.413 387.378 124.413C386.743 124.413 386.107 124.413 385.472 124.254C384.836 124.254 384.2 124.095 383.724 123.936C383.088 123.777 382.611 123.618 381.976 123.3C381.499 123.142 380.864 122.824 380.387 122.506L380.069 122.665Z" fill="white"/>
</svg>
